<svg xmlns="http://www.w3.org/2000/svg" version="1.1" xmlns:xlink="http://www.w3.org/1999/xlink" xmlns:svgjs="http://svgjs.dev/svgjs" width="1500" height="1500" viewBox="0 0 1500 1500"><rect width="1500" height="1500" fill="#ffffff"></rect><g transform="matrix(0.6666666666666666,0,0,0.6666666666666666,249.07768315593762,201.77759784075585)"><svg viewBox="0 0 225 247" data-background-color="#0a1e35" preserveAspectRatio="xMidYMid meet" height="1646" width="1500" xmlns="http://www.w3.org/2000/svg" xmlns:xlink="http://www.w3.org/1999/xlink"><g id="tight-bounds" transform="matrix(1,0,0,1,0.20752128991404106,-0.09999999999999432)"><svg viewBox="0 0 224.5849574201719 247.2" height="247.2" width="224.5849574201719"><g><svg viewBox="0 0 397.4975999999999 437.52443551312524" height="247.2" width="224.5849574201719"><g><rect width="397.4975999999999" height="12.515702934887702" x="0" y="224.56339313206522" fill="#000000" opacity="1" stroke-width="0" stroke="transparent" fill-opacity="1" class="rect-qz-0" data-fill-palette-color="primary" rx="1%" id="qz-0" data-palette-color="#e1e1dd"></rect></g><g><rect width="397.4975999999999" height="12.515702934887702" x="0" y="253.4609061911515" fill="#000000" opacity="1" stroke-width="0" stroke="transparent" fill-opacity="1" class="rect-qz-1" data-fill-palette-color="primary" rx="1%" id="qz-1" data-palette-color="#e1e1dd"></rect></g><g transform="matrix(1,0,0,1,0.9887999999999693,298.7402293744363)"><svg viewBox="0 0 395.52 138.78420613868892" height="138.78420613868892" width="395.52"><g id="textblocktransform"><svg viewBox="0 0 395.52 138.78420613868892" height="138.78420613868892" width="395.52" id="textblock"><g><svg viewBox="0 0 395.52 138.78420613868892" height="138.78420613868892" width="395.52"><g transform="matrix(1,0,0,1,0,0)"><svg width="395.52" viewBox="-0.1 -28.15 131.93 46.300000000000004" height="138.78420613868892" data-palette-color="#e1e1dd"><path d="M4.7 18.15L4.7 18.15Q4.6 18.15 4.45 18.05 4.3 17.95 4.25 17.95L4.25 17.95Q4.1 17.95 4.1 18L4.1 18 3.95 18Q3.55 17.6 2.9 16.45L2.9 16.45 2.9 16.15 2.7 15.4Q2.65 15.3 2.53 15.18 2.4 15.05 2.3 14.85L2.3 14.85Q2.4 14.55 2.3 14L2.3 14Q2.2 13.95 2 13.65L2 13.65Q2.1 13.25 2 12.35L2 12.35 1.65 11.85Q1.6 11.8 1.6 11.7L1.6 11.7 1.85 10.55Q1.85 10.6 1.75 10.3L1.75 10.3Q1.75 10.2 1.73 10.13 1.7 10.05 1.7 10L1.7 10Q1.7 9.85 1.8 9.45L1.8 9.45Q1.75 9.5 1.75 9.25L1.75 9.25Q1.8 9.25 1.8 9.15L1.8 9.15 1.8 7.75Q1.8 7.6 1.85 7.55L1.85 7.55 1.85 6.8Q1.9 6.8 2 6.25L2 6.25 2.3 4.7Q2.3 4.6 2.2 4.5L2.2 4.5 2.2 4.15 2.4 4 2.4 3.6 2.5 3.5Q2.5 3.05 2.4 2.95L2.4 2.95Q2.45 2.9 2.5 2.85 2.55 2.8 2.6 2.75L2.6 2.75 2.6 2.45 2.8 2.3Q2.9 1.5 2.85 1.45L2.85 1.45 2.95 1.45 2.85 1.4Q3 1.05 2.9 0.6L2.9 0.6Q2.85 0.2 2.9 0.15L2.9 0.15Q2.65 0.05 2.6-0.1L2.6-0.1 2.35-0.15 2.3-0.1 2.3 0Q2.25 0.15 1.9 0.15L1.9 0.15Q1.5 0.05 1.3-0.35L1.3-0.35 1.1-0.4Q1.2-0.5 0.95-0.63 0.7-0.75 0.55-1.15L0.55-1.15Q0.65-1.3 0.85-1.45L0.85-1.45 2.1-1.2Q2.2-1.35 2.3-1.35L2.3-1.35Q2.5-1.35 2.65-1.15L2.65-1.15 2.95-1.15Q3.05-1.5 3.25-1.7L3.25-1.7Q3.3-1.75 3.3-1.95L3.3-1.95 3.6-2.85Q3.5-3.1 3.6-3.5L3.6-3.5Q3.65-3.55 3.8-3.95L3.8-3.95 3.8-4.3Q3.85-4.4 3.9-4.5 3.95-4.6 4.05-4.75L4.05-4.75 4.05-5.25 4.15-5.4Q4.1-5.55 4.1-6L4.1-6 4.4-6.75Q4.4-6.8 4.65-6.95L4.65-6.95Q4.8-7.55 4.7-7.65L4.7-7.65Q4.9-7.8 4.93-8.08 4.95-8.35 5.15-9.05L5.15-9.05Q5.2-9.1 5.1-9.1L5.1-9.1 5.3-9.35Q5.25-9.8 3.9-10.2L3.9-10.2Q3.85-10.25 3.55-10.48 3.25-10.7 3.1-10.7L3.1-10.7Q3-10.7 2.95-10.65L2.95-10.65 2.8-10.65 2.75-10.85Q2.55-11 2.3-11.3L2.3-11.3 2.3-11.65Q2.25-11.75 2.2-11.75L2.2-11.75Q2.3-11.9 2.45-12.1L2.45-12.1Q2.4-12.15 2.4-12.35L2.4-12.35Q2.55-12.55 2.7-12.68 2.85-12.8 3.75-12.9L3.75-12.9Q3.8-12.9 3.85-12.95L3.85-12.95Q3.85-12.95 3.85-12.95L3.85-12.95Q3.85-12.95 3.85-12.95L3.85-12.95Q3.9-12.95 3.93-12.9 3.95-12.85 4-12.85L4-12.85Q4.05-12.85 4.08-12.93 4.1-13 4.15-13L4.15-13Q4.45-13 4.65-12.85L4.65-12.85Q4.7-12.75 5.4-12.15L5.4-12.15 5.75-12.15Q5.75-12.25 5.75-12.45 5.75-12.65 5.8-12.9L5.8-12.9Q5.8-12.95 5.95-13.25L5.95-13.25Q5.9-13.3 5.9-13.65L5.9-13.65Q6.05-14.35 6.05-14.2L6.05-14.2Q6.05-14.2 6.05-14.23 6.05-14.25 6-14.3L6-14.3Q6-14.55 5.98-14.8 5.95-15.05 5.9-15.35L5.9-15.35Q5.95-15.45 5.95-15.53 5.95-15.6 5.95-15.6L5.95-15.6Q5.65-16.15 5.65-16.15L5.65-16.15Q5.65-16.45 5.9-16.45L5.9-16.45Q6.1-16.45 6.15-16.3L6.15-16.3Q6.3-15.75 6.53-15.35 6.75-14.95 6.75-14.4L6.75-14.4 6.7-14.3Q6.65-14.25 6.75-14.1L6.75-14.1 6.6-12.3Q6.6-12.25 6.53-12.1 6.45-11.95 6.45-11.9L6.45-11.9Q6.45-11.5 6.8-11.3L6.8-11.3Q7-11.2 7.05-11.2L7.05-11.2Q7.05-11.2 7.08-11.23 7.1-11.25 7.15-11.25L7.15-11.25Q7.15-11 7.7-10.6L7.7-10.6 7.75-10.6Q7.75-10.65 7.8-10.65L7.8-10.65Q7.95-10.65 8.25-10.4 8.55-10.15 8.55-9.95L8.55-9.95 9.5-9.2 9.4-8.95 9.55-8.8Q9.7-8.5 10.05-8.5L10.05-8.5Q10.1-8.35 10.2-8.13 10.3-7.9 10.4-7.65L10.4-7.65Q10.7-7.6 10.75-7.55L10.75-7.55Q10.8-7.6 10.85-7.6L10.85-7.6 10.95-7.5 10.95-6.85Q11-6.8 11.35-6.8L11.35-6.8 11.55-6.4Q11.6-6.3 11.45-6.2L11.45-6.2 11.6-6.05Q11.65-6.05 11.65-6.15L11.65-6.15Q11.75-6.1 11.8-6.05 11.85-6 11.9-5.95L11.9-5.95Q12.1-5.05 12.55-5L12.55-5Q12.55-4.9 12.5-4.65 12.45-4.4 12.45-4.3L12.45-4.3 12.9-3.75 12.95-3.2Q12.95-2.9 13-2.75L13-2.75 14.4-3 15.15-3.15Q15.25-3.25 15.4-3.3L15.4-3.3Q16.65-3.45 18.3-4.2L18.3-4.2Q18.35-4.15 18.45-4.15 18.55-4.15 18.65-4.1L18.65-4.1 18.9-4.35Q19.55-4.7 19.7-4.45L19.7-4.45Q19.75-4.3 19.1-3.95L19.1-3.95Q18.75-3.75 18.2-3.6 17.65-3.45 16.1-2.9L16.1-2.9 14.95-2.55 13.1-2.2Q13.15-2.05 13.15-1.95 13.15-1.85 13.15-1.75L13.15-1.75 13.05-1.65 13.05-1.2Q12.9-1.2 12.85-1L12.85-1 12.35-0.75 12.35-0.4Q12.3-0.25 12.05-0.1L12.05-0.1 11.8-0.1Q11.3 0.15 11.4 0.15L11.4 0.15 11.35 0.15Q11.35 0.1 11.3 0.1L11.3 0.1Q11.25 0.1 10.93 0.25 10.6 0.4 10.55 0.4L10.55 0.4Q10.45 0.4 10.38 0.35 10.3 0.3 10.25 0.3L10.25 0.3Q10.15 0.3 9.93 0.4 9.7 0.5 9.7 0.5L9.7 0.5Q9.65 0.5 9.65 0.5L9.65 0.5 9.7 0.5Q9.65 0.45 9.3 0.38 8.95 0.3 8.85 0.3L8.85 0.3Q8.8 0.3 8.78 0.35 8.75 0.4 8.7 0.4L8.7 0.4Q8.65 0.4 8.58 0.35 8.5 0.3 8.4 0.3L8.4 0.3Q8.35 0.3 8.3 0.35L8.3 0.35 8.2 0.35Q8.25 0.35 8 0.2L8 0.2Q7.9 0.2 7.7 0.2 7.5 0.2 7.25 0.15L7.25 0.15 6.6 0.3 6.05 0.3Q6 0.3 5.9 0.2L5.9 0.2Q5.9 0.2 5.5 0.2L5.5 0.2 5.25 0.2Q5.1 0.2 4.93 0.2 4.75 0.2 4.5 0.25L4.5 0.25Q4.45 0.45 4.4 0.68 4.35 0.9 4.3 1.25L4.3 1.25Q4.35 1.4 4.3 1.6L4.3 1.6Q4.15 1.75 4.1 1.9L4.1 1.9Q4.05 2.1 4.03 2.27 4 2.45 4 2.65L4 2.65Q4 2.8 4.2 2.9 4.4 3 4.4 3.2L4.4 3.2Q4.4 3.2 4.35 3.35 4.3 3.5 4.2 3.75L4.2 3.75Q4.2 3.85 4.1 4.03 4 4.2 3.8 4.55L3.8 4.55 3.8 4.75Q3.8 4.9 3.78 5.08 3.75 5.25 3.7 5.5L3.7 5.5Q3.7 5.7 3.68 5.98 3.65 6.25 3.65 6.6L3.65 6.6Q3.65 6.95 3.68 7.33 3.7 7.7 3.7 8.1L3.7 8.1 3.7 8.15Q3.7 8.25 3.63 8.4 3.55 8.55 3.55 8.65L3.55 8.65Q3.55 8.85 3.65 9.15L3.65 9.15Q3.55 9.3 3.5 9.8L3.5 9.8Q3.6 10.1 3.5 10.65L3.5 10.65Q3.3 11.3 3.3 11.1L3.3 11.1 3.3 12.15Q3.45 12.2 3.6 12.15L3.6 12.15Q3.5 12.3 3.45 13.25L3.45 13.25Q3.4 13.25 3.4 13.35L3.4 13.35 3.4 15.1 3.6 15.35 3.45 15.35Q3.4 15.4 3.4 15.6L3.4 15.6Q3.4 15.9 3.63 16.4 3.85 16.9 4.05 16.95L4.05 16.95Q4.1 16.95 4 17.2L4 17.2 4.1 17.35Q4.2 17.25 4.2 17.15L4.2 17.15 4.35 17.15Q4.75 17.55 4.9 17.55L4.9 17.55Q5 17.55 5.1 17.5L5.1 17.5 5.25 17.5 5.25 17.9Q5.05 18.1 5.05 18.1L5.05 18.1 4.85 18.1Q4.8 18.15 4.7 18.15ZM2.2-11.75L2.2-11.75Q2.2-11.8 2.2-11.75L2.2-11.75Q2.2-11.75 2.2-11.75 2.2-11.75 2.2-11.75ZM4.9-2.45L4.9-1.35Q6-1.45 6.93-1.58 7.85-1.7 8.65-1.9L8.65-1.9 9.9-2.2Q10.1-2.2 10.33-2.23 10.55-2.25 10.9-2.3L10.9-2.3Q10.95-2.25 11.1-2.25L11.1-2.25 12-2.45 12.35-2.55Q12.25-2.85 12.25-2.85L12.25-2.85Q12.1-2.8 11.85-3.5L11.85-3.5Q11.85-3.45 11.5-4.2L11.5-4.2 11.15-4.7 10.8-5Q10.45-5.25 10.08-5.63 9.7-6 9.25-6.4L9.25-6.4Q9.2-6.6 9-6.78 8.8-6.95 8.7-7.2L8.7-7.2Q8.45-7.4 7.85-7.83 7.25-8.25 6.3-8.75L6.3-8.75 6.3-8.7 6.1-8.7 6.1-8.6Q6.1-8.6 5.93-8.15 5.75-7.7 5.7-7.55L5.7-7.55Q5.75-7.45 5.75-7.15L5.75-7.15 5.5-6.5Q5.3-5.45 5.2-4.7L5.2-4.7 5.2-4.4Q5-3.8 5-3.35L5-3.35Q5-2.7 5.05-2.75L5.05-2.75 5.05-2.8Q5.05-2.75 5.05-2.75L5.05-2.75 4.9-2.45ZM8.45-0.55L8.45-0.55 8.75-0.7 8.85-0.6Q8.95-0.7 9-0.7L9-0.7 9.75-0.7 10.15-0.8Q10.3-0.8 10.4-0.7L10.4-0.7Q10.45-0.9 10.6-0.9L10.6-0.9Q10.7-0.8 11.2-0.7L11.2-0.7Q11.3-0.8 11.38-0.85 11.45-0.9 11.45-0.9L11.45-0.9Q11.5-0.9 11.5-0.85L11.5-0.85 11.6-0.85Q11.7-0.85 11.83-1 11.95-1.15 12.25-1.2L12.25-1.2 12.45-1.65 12.3-1.75Q12.45-2 12.5-2.05L12.5-2.05 11.1-1.8Q10.6-1.75 9.47-1.45 8.35-1.15 6.6-0.65L6.6-0.65Q6.8-0.65 7.03-0.65 7.25-0.65 7.5-0.7L7.5-0.7Q7.5-0.65 8-0.65L8-0.65Q8.45-0.65 8.45-0.55ZM0.4-1.45L0.1-1.2Q0.05-1.25 0.03-1.3 0-1.35-0.1-1.4L-0.1-1.4-0.1-1.65 0.1-1.8 0.4-1.45ZM20.2-0.05L19.65 0.05Q19.65 0.05 19.3-0.15L19.3-0.15Q19.15-0.15 18.85-0.2 18.55-0.25 17.95-0.55L17.95-0.55Q17.85-0.6 17.67-0.68 17.5-0.75 17.3-0.9L17.3-0.9Q17.25-1.15 16.85-1.65L16.85-1.65 16.75-1.65 16.6-1.55Q16.55-1.8 16.3-2L16.3-2Q16.3-2.2 16.1-2.45L16.1-2.45Q16.2-2.85 16.1-3.35L16.1-3.35Q16-3.65 15.7-3.95L15.7-3.95 15.85-4.15Q15.95-4.35 16.05-4.63 16.15-4.9 16.25-5.25L16.25-5.25Q16.3-5.45 16.35-5.7 16.4-5.95 16.5-6.3L16.5-6.3Q16.45-6.35 16.02-6.7 15.6-7.05 15.3-6.9L15.3-6.9Q15.35-7 15.35-7.08 15.35-7.15 15.35-7.15L15.35-7.15Q15.35-7.2 15.25-7.28 15.15-7.35 15.15-7.45L15.15-7.45Q15.15-7.45 15.3-7.63 15.45-7.8 15.5-7.8L15.5-7.8Q15.6-7.8 15.82-7.7 16.05-7.6 16.15-7.6L16.15-7.6Q16.2-7.6 16.3-7.65 16.4-7.7 16.45-7.7L16.45-7.7 17.3-7.5Q17.4-7.5 17.6-7.6L17.6-7.6 18.85-8.85Q19-8.85 19.02-8.93 19.05-9 19.55-9.45L19.55-9.45Q19.6-9.45 19.72-9.5 19.85-9.55 20.1-9.8L20.1-9.8 20.25-10.05Q21.7-11.05 22.8-11.05L22.8-11.05 23.15-11.05Q23.05-10.95 23.25-10.95L23.25-10.95Q23.3-10.95 23.4-11 23.5-11.05 23.55-11.05L23.55-11.05 23.85-10.85 24.15-10.85Q24.35-10.65 24.35-10.65L24.35-10.65Q24.4-10.65 24.4-10.7L24.4-10.7 24.45-10.7Q24.35-10.7 24.65-10.4L24.65-10.4Q24.65-10.4 24.4-9.6L24.4-9.6Q24.25-9.5 23.97-9.2 23.7-8.9 23.6-8.9L23.6-8.9Q23.55-8.9 23.37-9 23.2-9.1 23.1-9.1L23.1-9.1Q23.05-9.1 22.8-9 22.55-8.9 22.45-8.8L22.45-8.8Q22.4-8.75 22.22-8.68 22.05-8.6 21.05-8.25L21.05-8.25Q21.1-7.9 20.9-7.85L20.9-7.85Q20.55-7.8 20.45-7.6L20.45-7.6 20.45-7.55Q20.7-7.3 21.6-7.3L21.6-7.3Q21.65-7.3 21.72-7.35 21.8-7.4 21.9-7.4L21.9-7.4Q21.95-7.4 22-7.35L22-7.35 22.1-7.35Q22.15-7.35 22.25-7.43 22.35-7.5 22.4-7.5L22.4-7.5Q22.5-7.5 23-7.35 23.5-7.2 23.55-7.2L23.55-7.2Q23.75-7.2 23.85-7.45L23.85-7.45 24.05-7.3 24.3-7.3Q24.35-7.3 24.5-7.45L24.5-7.45 24.5-7.55Q24.1-7.8 23.9-7.8L23.9-7.8 23.9-8.2 24.15-8.3Q24.2-8.3 24.25-8.25L24.25-8.25 24.35-8.25 24.8-8.4Q24.95-8.1 25.15-7.9L25.15-7.9Q25.2-7.9 25.2-8L25.2-8Q25.35-7.95 25.62-7.73 25.9-7.5 26-7.5L26-7.5Q26.05-7.5 26.15-7.58 26.25-7.65 26.35-7.7L26.35-7.7 26.6-7.7Q27.05-7.7 27.6-7.9L27.6-7.9 27.75-7.8Q27.9-7.95 28.1-7.95L28.1-7.95Q28.2-7.95 28.2-7.9L28.2-7.9 28.25-7.9 28.8-8Q28.9-8.1 29.15-8.15 29.4-8.2 30-8.2L30-8.2Q30.05-8.2 30.05-8.25L30.05-8.25Q30.25-8.35 30.47-8.4 30.7-8.45 31-8.5L31-8.5Q31.05-8.55 31.22-8.65 31.4-8.75 31.85-8.85L31.85-8.85Q31.95-8.85 32.05-8.85 32.15-8.85 32.35-8.9L32.35-8.9 32.5-9.05Q32.55-9.05 32.55-9L32.55-9 32.6-9Q32.4-9 33.3-9.4L33.3-9.4Q33.35-9.35 33.35-9.25 33.35-9.15 33.4-9L33.4-9Q33.25-9 33.2-8.8L33.2-8.8Q32.7-8.75 32.5-8.4L32.5-8.4 31.75-8.1Q31.65-8.1 31.52-8.1 31.4-8.1 31.2-8.05L31.2-8.05 30.75-7.8Q30.7-7.8 30.65-7.85 30.6-7.9 30.55-7.9L30.55-7.9Q30.6-7.9 30.27-7.75 29.95-7.6 29.7-7.6L29.7-7.6 29.65-7.6Q29.65-7.65 29.6-7.65L29.6-7.65 29.45-7.5Q29.25-7.45 28.92-7.45 28.6-7.45 28.2-7.4L28.2-7.4Q28.2-7.35 28.15-7.3L28.15-7.3Q28.25-7.3 28.12-7.28 28-7.25 27.75-7.2L27.75-7.2Q27.6-7.2 27.35-7.2 27.1-7.2 26.75-7.15L26.75-7.15Q26.7-7.15 26.6-7.05L26.6-7.05 27.25-6.3 27.25-6.15Q27.25-6.15 27.3-6.1 27.35-6.05 27.6-5.65L27.6-5.65Q27.75-5.35 27.6-5.3L27.6-5.3Q27.75-4.8 27.75-4.95L27.75-4.95Q27.75-4.9 27.7-4.7 27.65-4.5 27.55-4.15L27.55-4.15Q27.45-4 27.35-3.78 27.25-3.55 27.15-3.25L27.15-3.25Q27-3.05 26.7-2.73 26.4-2.4 25.9-1.9L25.9-1.9Q25.9-1.85 25.67-1.73 25.45-1.6 25.2-1.25L25.2-1.25Q24.9-1.1 24.47-0.93 24.05-0.75 23.5-0.5L23.5-0.5Q23.3-0.45 22.97-0.38 22.65-0.3 22.25-0.25L22.25-0.25Q22.1-0.2 21.85-0.1 21.6 0 21.2 0L21.2 0Q20.35 0 20.2-0.05L20.2-0.05ZM20.1-0.45L20.1-0.45Q20.1-0.4 20.12-0.48 20.15-0.55 20.2-0.55L20.2-0.55 20.6-0.45Q20.9-0.45 20.97-0.53 21.05-0.6 21.2-0.6L21.2-0.6 21.4-0.6Q21.55-0.55 21.65-0.55L21.65-0.55Q21.7-0.55 21.8-0.63 21.9-0.7 21.95-0.7L21.95-0.7Q22.05-0.7 22.05-0.65L22.05-0.65 22.2-0.75 22.85-0.75Q22.85-0.75 23.17-0.83 23.5-0.9 23.8-1.1L23.8-1.1 24.2-1.35Q24.6-1.6 24.9-1.73 25.2-1.85 25.35-1.95L25.35-1.95Q26.1-2.5 26.35-3.15L26.35-3.15Q26.35-3.3 26.42-3.53 26.5-3.75 26.5-3.8L26.5-3.8Q26.5-4 26.3-4.2L26.3-4.2Q26.3-4.3 26.32-4.5 26.35-4.7 26.4-4.95L26.4-4.95 26.3-5.05Q26.2-5.45 25.95-5.85L25.95-5.85Q25.9-5.85 25.85-5.9 25.8-5.95 25.75-6.35L25.75-6.35 25.5-6.55 25.5-6.8 24.95-6.8Q24.9-6.8 24.85-6.85 24.8-6.9 24.75-6.9L24.75-6.9 24.5-6.9Q23.95-6.65 23.95-6.6L23.95-6.6 24-6.6Q24-6.6 23.95-6.6L23.95-6.6 23.55-6.75Q23.55-6.75 23.3-6.65 23.05-6.55 22.75-6.55L22.75-6.55Q22.7-6.55 22.65-6.63 22.6-6.7 22.5-6.7L22.5-6.7Q22.45-6.7 22.3-6.58 22.15-6.45 22.1-6.45L22.1-6.45Q22-6.45 21.97-6.5 21.95-6.55 21.9-6.55L21.9-6.55Q21.85-6.55 21.75-6.5 21.65-6.45 21.6-6.45L21.6-6.45Q21.6-6.45 21.6-6.45L21.6-6.45 21.6-6.45Q21.6-6.45 21.25-6.65L21.25-6.65Q21.25-6.25 20.95-6.25L20.95-6.25Q20.75-6.25 20.75-6.6L20.75-6.6Q20.55-6.55 20.42-6.48 20.3-6.4 20.15-6.4L20.15-6.4 20-6.4 19.85-6.55Q19.8-6.4 19.6-6.4L19.6-6.4Q19.45-6.4 19.4-6.45L19.4-6.45 19.4-6.6Q19.35-6.55 19.25-6.5 19.15-6.45 19.05-6.4L19.05-6.4 19.05-6.35Q19.05-6.1 18.75-5.9 18.45-5.7 17.9-5.4L17.9-5.4Q17.9-5.35 17.92-5.28 17.95-5.2 17.95-5.15L17.95-5.15Q17.95-4.65 17.5-4.5L17.5-4.5 17.05-3.15Q17.15-3.15 17.15-3.1L17.15-3.1 17.7-1.45Q17.75-1.45 17.8-1.5L17.8-1.5 17.95-1.5Q18.1-1.5 18.2-1.18 18.3-0.85 18.5-0.85L18.5-0.85Q18.55-0.85 18.55-0.9L18.55-0.9 18.6-0.9Q18.55-0.9 19-0.7L19-0.7Q19-0.7 19.3-0.6L19.3-0.6 19.4-0.7Q20.1-0.55 20.1-0.45ZM32.45 0.8L32.45 0.8Q32.4 0.8 32.32 0.73 32.25 0.65 32.15 0.65L32.15 0.65Q32.2 0.65 31.95 0.75L31.95 0.75 31.35 0 31.35-1.25 31.45-1.35 31.45-1.45Q31.45-1.55 31.52-1.7 31.6-1.85 31.65-2.05L31.65-2.05Q31.6-2.1 31.6-2.25L31.6-2.25Q31.6-2.5 31.95-2.7L31.95-2.7Q31.9-2.85 31.95-3.2L31.95-3.2 32.09-3.5Q32.2-3.65 32.05-3.8L32.05-3.8 32.25-4.9Q32.3-4.95 32.4-5.25L32.4-5.25 32.59-7.05Q32.55-7.1 32.55-7.25L32.55-7.25Q32.65-7.45 32.65-7.5L32.65-7.5Q32.65-7.85 32.59-7.95 32.55-8.05 32.5-8.15L32.5-8.15Q32.55-8.35 32.55-8.65L32.55-8.65Q32.55-9.1 32.2-9.1L32.2-9.1Q32.2-9.1 32.12-9.08 32.05-9.05 31.9-9L31.9-9 31.85-9.2 31.85-9.25Q31.85-9.5 32.3-9.75L32.3-9.75Q32.34-9.75 32.34-9.7L32.34-9.7 32.45-9.7Q32.65-9.7 32.84-9.9L32.84-9.9 33.59-9.3Q33.65-9.3 33.55-9.05L33.55-9.05 33.8-8.7 33.8-7.5Q33.84-7.4 33.87-7.35 33.9-7.3 33.9-7.25L33.9-7.25Q33.9-7.2 33.84-7.15 33.8-7.1 33.8-7L33.8-7 33.8-5.25Q33.75-5.25 33.7-5.2L33.7-5.2Q33.75-5.15 33.75-3.95L33.75-3.95Q33.75-3.85 33.65-3.65 33.55-3.45 33.55-3.4L33.55-3.4Q33.55-3.35 33.65-3.15L33.65-3.15 33.75-3.15Q33.75-3.15 34-3.9L34-3.9 34.15-3.9Q34.15-4 34.15-4.13 34.15-4.25 34.2-4.45L34.2-4.45 34.84-5.2Q34.9-5.3 35-5.48 35.09-5.65 35.2-5.85L35.2-5.85Q35.25-5.95 35.55-6.25L35.55-6.25Q35.59-6.35 35.65-6.48 35.7-6.6 35.8-6.8L35.8-6.8 36.15-7.1Q36.15-7.2 36.27-7.33 36.4-7.45 36.45-7.6L36.45-7.6Q36.7-7.65 36.8-8.1L36.8-8.1Q37.09-8.25 37.59-8.75L37.59-8.75 37.59-8.95Q38-9.3 37.95-9.3L37.95-9.3 38-9.3Q38-9.25 38.05-9.25L38.05-9.25Q38-9.25 38.65-10L38.65-10Q38.9-10.1 39.5-10.8L39.5-10.8Q39.84-10.95 40.3-11.3L40.3-11.3 40.75-11.3 41.3-11.2Q41.55-11.1 41.84-10.83 42.15-10.55 42.3-9.85L42.3-9.85 42.3-9.35Q42.3-9.25 42.27-9.03 42.25-8.8 42.2-8.45L42.2-8.45Q42.15-7.7 40.9-6.55L40.9-6.55Q40.7-6.55 40.34-6.3L40.34-6.3 40.34-6.85Q40.45-6.95 40.55-7.13 40.65-7.3 40.75-7.5L40.75-7.5Q40.75-7.6 40.34-7.7L40.34-7.7Q40.65-8.3 40.65-8.45L40.65-8.45Q40.65-8.6 40.5-8.8L40.5-8.8Q40.4-8.75 40.34-8.72 40.3-8.7 40.3-8.7L40.3-8.7Q39.9-8.7 39.95-8.75L39.95-8.75Q39.9-8.8 39.9-9L39.9-9 39.8-9Q39.7-9 39.5-8.83 39.3-8.65 39.25-8.65L39.25-8.65Q39.2-8.65 39.2-8.7L39.2-8.7 39.09-8.7Q39.05-8.7 38.95-8.6 38.84-8.5 38.75-8.5L38.75-8.5Q38.65-8.5 38.55-8.65L38.55-8.65Q38.45-8.65 38.4-8.6L38.4-8.6Q38.5-8.4 38.4-8.15L38.4-8.15Q38.2-7.85 38-7.85L38-7.85Q37.95-7.85 37.87-7.9 37.8-7.95 37.75-7.95L37.75-7.95Q37.75-7.7 37.8-7.6L37.8-7.6 37.4-7.1Q37.3-7 37.15-7L37.15-7Q37.09-7 37-7.1L37-7.1 36.75-6.4 36.7-6.4Q36.45-6.4 35.95-5.75L35.95-5.75 35.75-5.65Q35.09-4.5 34.62-3.75 34.15-3 33.9-2.7L33.9-2.7 33.9-2.3Q33.55-2.05 33.5-1.25L33.5-1.25Q33.4-1.15 33.3-0.9L33.3-0.9Q33.4-0.7 33.3-0.3L33.3-0.3Q33.25-0.25 33.2-0.08 33.15 0.1 33.05 0.4L33.05 0.4Q32.8 0.8 32.45 0.8ZM41.29 8.7L41.24 8.75Q41.14 8.85 41.04 8.65L41.04 8.65Q41.04 8.5 41.09 8.2 41.14 7.9 41.19 7.75L41.19 7.75 41.84 5.3Q41.84 5.1 41.84 4.85 41.84 4.6 41.89 4.35L41.89 4.35Q41.99 4.25 42.09 4.13 42.19 4 42.29 3.8L42.29 3.8 42.14 3.35Q42.14 3.25 42.39 3.1L42.39 3.1Q42.19 2.9 42.29 2.6L42.29 2.6 42.69 1.5Q42.54 1.6 42.29 1.9L42.29 1.9Q42.19 1.8 42.04 1.75L42.04 1.75Q42.09 1.65 41.94 1.4L41.94 1.4 42.09 0.75Q42.44 0.55 42.44 0.25L42.44 0.25 42.39-0.2Q42.59-0.4 42.79-0.75L42.79-0.75Q42.74-0.8 42.74-1L42.74-1Q42.79-1.45 42.92-1.83 43.04-2.2 42.99-2.25L42.99-2.25 42.99-2.6 43.29-3.5Q43.19-3.6 43.19-3.65L43.19-3.65Q43.29-3.9 43.54-4.15L43.54-4.15 43.54-4.45 43.84-4.65 43.84-5.15Q43.99-5.15 44.04-5.2L44.04-5.2Q43.89-5.35 43.84-5.5L43.84-5.5Q44.39-5.75 44.09-6.15L44.09-6.15 44.24-6.8Q44.24-6.8 44.54-6.9L44.54-6.9Q44.49-7.1 44.44-7.1L44.44-7.1 44.69-7.35Q44.64-7.45 44.64-7.7L44.64-7.7 44.94-8.75 44.79-8.9Q44.89-9.15 44.99-9.53 45.09-9.9 45.29-10.4L45.29-10.4 44.94-10.4Q44.89-10.4 44.84-10.33 44.79-10.25 44.74-10.25L44.74-10.25Q44.64-10.25 44.69-10.3L44.69-10.3 44.64-10.3Q44.49-10.3 44.44-10.1L44.44-10.1Q44.44-10.2 44.39-10.2L44.39-10.2Q44.29-10.15 43.84-9.9L43.84-9.9Q43.79-9.9 43.67-9.88 43.54-9.85 43.39-9.8L43.39-9.8Q42.49-9.45 42.54-9.45L42.54-9.45Q42.49-9.45 42.39-9.6L42.39-9.6Q42.29-9.85 42.39-9.95L42.39-9.95Q42.34-10.05 42.34-10.35L42.34-10.35Q42.54-10.55 42.89-11.2L42.89-11.2Q43.14-11.2 43.49-11.55L43.49-11.55Q43.49-11.45 43.59-11.35L43.59-11.35Q43.59-11.4 43.64-11.45L43.64-11.45Q43.94-11.45 43.99-11.4L43.99-11.4 44.84-11.8Q44.84-11.75 44.94-11.65L44.94-11.65 45.09-11.75Q45.04-11.6 45.09-11.6L45.09-11.6Q45.19-11.6 45.69-12.05L45.69-12.05 46.04-12.35Q46.04-12.4 45.99-12.4L45.99-12.4 46.54-13.8Q46.49-13.8 46.39-13.9L46.39-13.9 46.59-14.05Q46.69-14.2 46.79-14.4 46.89-14.6 46.99-14.8L46.99-14.8Q46.99-15 46.99-15.25 46.99-15.5 47.04-15.75L47.04-15.75Q47.09-15.8 47.32-16.2 47.54-16.6 47.59-16.8L47.59-16.8Q47.69-17 47.84-17.38 47.99-17.75 48.14-18.5L48.14-18.5Q48.34-18.7 48.64-19.5L48.64-19.5Q48.64-19.4 48.69-19.4L48.69-19.4Q48.79-19.5 48.89-19.7L48.89-19.7Q48.94-19.85 48.79-20.15L48.79-20.15 48.89-20.2Q48.89-20.2 48.99-20.5L48.99-20.5Q49.04-20.55 49.12-20.6 49.19-20.65 49.24-20.75L49.24-20.75 49.69-22.05 49.74-22 49.84-22Q49.89-22.05 49.79-22.1L49.79-22.1 49.99-22.3Q49.99-22.4 49.99-22.5 49.99-22.6 50.04-22.75L50.04-22.75Q50.14-22.85 50.27-22.98 50.39-23.1 50.59-23.3L50.59-23.3 50.74-23.3Q50.74-23.3 50.74-23.28 50.74-23.25 50.79-23.2L50.79-23.2Q50.99-23.25 51.19-23.55L51.19-23.55Q51.19-23.55 51.22-23.55 51.24-23.55 51.29-23.5L51.29-23.5Q51.69-23.45 51.69-23.45 51.69-23.45 51.84-23.45L51.84-23.45 52.09-23.45Q52.49-23.45 52.64-23.3L52.64-23.3 52.89-23.3Q52.99-23.2 52.99-23.05L52.99-23.05 52.89-22.7Q52.74-22.15 52.59-21.85 52.44-21.55 52.14-21.1L52.14-21.1 51.89-20.75Q51.79-20.5 51.62-20.1 51.44-19.7 51.24-19.15L51.24-19.15Q51.19-19.15 51.17-19.15 51.14-19.15 51.09-18.95L51.09-18.95 50.94-18.6Q50.94-18.5 50.59-18L50.59-18Q50.49-17.9 50.44-17.35L50.44-17.35 50.04-16.4Q50.09-16.35 50.09-16.3L50.09-16.3Q49.74-16.05 49.64-16.05L49.64-16.05Q49.54-16.05 49.44-16.15L49.44-16.15 49.64-16.65 49.59-16.7Q49.49-16.6 49.49-16.55L49.49-16.55Q49.29-16.45 49.24-16.3L49.24-16.3 48.79-15.1 48.44-14.45 47.79-12.6Q47.69-12.3 47.79-12.2L47.79-12.2Q47.79-12.2 47.99-12.3L47.99-12.3Q48.24-11.9 48.04-11.9L48.04-11.9Q48.29-11.9 48.34-11.9 48.39-11.9 48.29-11.95L48.29-11.95Q48.34-12 48.52-12.1 48.69-12.2 49.24-12.35L49.24-12.35Q49.29-12.15 49.39-12.15L49.39-12.15Q49.49-12.15 49.79-12.33 50.09-12.5 50.14-12.5L50.14-12.5Q50.14-12.5 50.22-12.45 50.29-12.4 50.39-12.3L50.39-12.3 50.54-12.4 51.69-12.75Q51.69-12.75 51.69-12.75L51.69-12.75 51.69-12.75Q51.69-12.75 51.74-12.6L51.74-12.6Q51.84-12.65 51.89-12.68 51.94-12.7 51.94-12.7L51.94-12.7Q51.99-12.7 52.09-12.6L52.09-12.6Q52.69-13 53.29-13.2L53.29-13.2Q53.34-13.2 53.34-13.15L53.34-13.15 53.39-13.15Q53.44-13.15 53.72-13.25 53.99-13.35 54.09-13.35L54.09-13.35Q54.09-13.25 53.94-13.1L53.94-13.1Q53.64-13.05 53.37-12.78 53.09-12.5 53.04-12.5L53.04-12.5 52.99-12.5Q53.04-12.55 52.99-12.55L52.99-12.55Q53.14-12.55 51.54-12.1L51.54-12.1Q51.39-12.05 50.94-11.83 50.49-11.6 50.44-11.6L50.44-11.6 49.64-11.35Q49.59-11.35 49.64-11.4L49.64-11.4Q49.64-11.45 49.59-11.45L49.59-11.45Q49.54-11.45 49.52-11.38 49.49-11.3 49.44-11.3L49.44-11.3Q48.29-11.3 48.04-10.9L48.04-10.9 47.89-10.9Q47.84-10.9 47.77-10.95 47.69-11 47.59-11L47.59-11Q47.44-11 47.19-10.75L47.19-10.75Q47.14-10.55 47.04-10.3 46.94-10.05 46.84-9.7L46.84-9.7Q46.84-9.7 46.49-8.7L46.49-8.7Q46.29-8.15 46.09-7.58 45.89-7 45.64-6.45L45.64-6.45Q45.59-6.25 45.49-5.9 45.39-5.55 45.29-5.1L45.29-5.1Q44.89-3.5 43.94-0.65L43.94-0.65Q43.79-0.25 43.64 0L43.64 0Q43.69 0.05 43.69 0.35L43.69 0.35Q43.64 0.45 43.59 0.6 43.54 0.75 43.44 0.85L43.44 0.85 43.44 1.05Q43.44 1.2 43.14 1.75L43.14 1.75Q43.24 2.1 43.14 2.2L43.14 2.2Q42.79 3.6 42.49 3.95L42.49 3.95 42.49 4.1Q42.49 4.25 42.44 4.48 42.39 4.7 42.29 4.95L42.29 4.95Q42.09 5.75 41.84 6.68 41.59 7.6 41.29 8.7L41.29 8.7ZM50.09-16.3L50.09-16.3Q50.09-16.3 50.09-16.3L50.09-16.3ZM44.44-7.1L44.44-7.1Q44.44-7.15 44.44-7.1L44.44-7.1ZM52.29 12.95L52.24 13 52.14 12.9Q52.09 12.9 52.02 12.9 51.94 12.9 51.74 12.95L51.74 12.95 51.29 12.95Q51.24 12.95 50.92 12.83 50.59 12.7 50.54 12.7L50.54 12.7Q50.44 12.7 50.44 12.75L50.44 12.75 50.39 12.75Q50.39 12.7 49.14 12.4L49.14 12.4Q49.14 12.35 49.24 12.25L49.24 12.25Q49.14 12 48.89 12L48.89 12Q48.89 12 48.84 12.03 48.79 12.05 48.69 12.1L48.69 12.1Q48.64 11.65 48.24 11.45 47.84 11.25 47.89 11.25L47.89 11.25Q47.64 10.85 47.57 10.83 47.49 10.8 47.44 10.55L47.44 10.55Q47.34 10.3 47.34 10.23 47.34 10.15 46.99 9.5L46.99 9.5Q46.99 9.4 46.97 9.22 46.94 9.05 46.89 8.85L46.89 8.85 46.99 8.65 46.79 8.2Q46.74 8.05 46.84 8L46.84 8 46.84 7.8Q46.84 7.55 46.79 7.3 46.74 7.05 46.64 6.75L46.64 6.75Q46.89 6.35 46.94 6L46.94 6Q46.99 5.65 47.12 5.08 47.24 4.5 47.49 3.7L47.49 3.7Q47.49 3.5 47.39 3.4L47.39 3.4Q47.39 3.4 47.79 3.2L47.79 3.2Q47.94 2.3 47.99 2.33 48.04 2.35 48.09 2.2L48.09 2.2 48.29 1.85Q48.39 1.65 48.54 1.25 48.69 0.85 48.94 0.25L48.94 0.25 49.24-0.25Q49.29-0.3 49.42-0.48 49.54-0.65 49.64-1.2L49.64-1.2Q49.74-1.3 49.87-1.58 49.99-1.85 50.44-2.45L50.44-2.45Q50.49-2.55 50.57-2.75 50.64-2.95 50.79-3.1L50.79-3.1 51.04-3.4Q51.24-3.65 51.42-3.98 51.59-4.3 51.79-4.75L51.79-4.75 52.69-5.8 52.69-5.95 52.59-6 52.44-6.15Q52.29-6.2 52.09-6.2L52.09-6.2 52.04-6.2Q51.34-6.2 51.04-6.05 50.74-5.9 50.84-5.9L50.84-5.9Q50.69-5.9 50.59-6.05L50.59-6.05Q50.54-6.45 50.59-6.5L50.59-6.5Q50.54-6.55 50.54-6.7L50.54-6.7 50.44-6.85 50.59-7.05Q50.84-7.25 51.39-8.1L51.39-8.1Q51.74-8.1 52.29-8.45L52.29-8.45Q52.24-8.3 52.39-8.15L52.39-8.15Q52.39-8.25 52.44-8.3L52.44-8.3Q52.94-8.2 52.99-8.15L52.99-8.15Q53.24-8.25 53.54-8.35 53.84-8.45 54.24-8.5L54.24-8.5 54.24-8.45 54.34-8.55 54.34-8.7Q54.49-8.9 54.84-9.2L54.84-9.2Q54.84-9.3 54.89-9.4L54.89-9.4 55.04-9.45 55.09-9.55 55.24-9.75Q55.34-10.15 55.74-10.5L55.74-10.5Q55.74-10.65 55.79-10.75L55.79-10.75Q56.14-11.1 56.49-11.6L56.49-11.6 56.69-12.05Q56.94-12.1 57.24-12.7L57.24-12.7Q57.64-13.4 57.69-13.35 57.74-13.3 57.79-13.4L57.79-13.4 58.14-13.7Q58.14-13.7 58.24-14L58.24-14 58.54-14.2 58.74-14.7Q58.99-14.85 59.19-15.15L59.19-15.15Q59.29-15.15 59.34-15.2L59.34-15.2Q59.44-15.45 59.79-15.9L59.79-15.9Q59.94-16 60.09-16.25 60.24-16.5 60.74-16.8L60.74-16.8 60.99-17.25 61.19-17.35Q61.19-17.4 61.17-17.43 61.14-17.45 61.14-17.45L61.14-17.45Q61.14-17.65 61.37-17.8 61.59-17.95 61.79-17.95L61.79-17.95 61.84-18.2Q61.84-18.25 62.09-18.4L62.09-18.4Q62.14-18.5 62.19-18.63 62.24-18.75 62.34-18.95L62.34-18.95Q62.44-18.95 62.84-19.35L62.84-19.35Q62.94-19.45 63.09-19.6 63.24-19.75 63.34-19.95L63.34-19.95Q63.79-20.25 64.04-20.45 64.29-20.65 64.89-21L64.89-21 65.09-21Q64.89-20.35 64.54-20.35L64.54-20.35 64.49-20.35 64.44-20.4Q64.39-20.2 64.24-20.1 64.09-20 63.84-19.45L63.84-19.45 64.29-19.15Q64.39-19.45 65.24-20L65.24-20 65.49-20.35 65.74-20.65Q66.14-20.9 66.29-21.08 66.44-21.25 66.99-21.65L66.99-21.65Q67.14-21.9 67.14-22L67.14-22Q67.44-22.2 67.59-22.35L67.59-22.35 69.74-24.55Q69.99-24.55 70.34-25.2L70.34-25.2Q70.44-25.2 70.59-25.4 70.74-25.6 70.89-25.6L70.89-25.6 70.94-25.6 70.94-25.55Q70.94-25.6 71.14-25.75L71.14-25.75Q71.29-25.8 71.62-26.03 71.94-26.25 71.99-26.25L71.99-26.25Q71.99-26.25 72.34-26L72.34-26 72.39-25.7Q72.39-25.65 72.29-25.53 72.19-25.4 72.14-24.8L72.14-24.8 71.99-24.8 71.79-24.2 70.54-23.55Q70.44-23.4 70.09-23.05L70.09-23.05 69.69-22.85Q69.69-22.95 69.64-23L69.64-23Q69.74-23.25 69.99-23.5L69.99-23.5 69.99-23.65 69.84-23.65 68.64-22.65Q68.29-22.3 67.72-21.83 67.14-21.35 66.34-20.8L66.34-20.8Q66.24-20.6 65.97-20.35 65.69-20.1 65.24-19.6L65.24-19.6Q65.14-19.4 64.79-19.2L64.79-19.2Q64.79-19.15 64.74-19.1L64.74-19.1Q64.19-18.5 63.17-17.48 62.14-16.45 60.64-14.8L60.64-14.8Q60.49-14.75 59.74-13.75L59.74-13.75Q59.44-13.6 59.04-13.05L59.04-13.05Q58.94-13.05 58.89-13L58.89-13Q58.74-12.65 58.37-12.3 57.99-11.95 57.89-11.7L57.89-11.7Q57.69-11.45 57.34-11.08 56.99-10.7 56.49-10.2L56.49-10.2Q56.49-10.1 56.44-10L56.44-10 55.99-9.45Q55.94-9.25 55.57-8.8 55.19-8.35 55.19-8.35L55.19-8.35 55.14-8.3Q55.44-8.25 55.94-8.25 56.44-8.25 57.09-8.2L57.09-8.2 58.14-8.2Q59.09-8.2 59.04-8.25L59.04-8.25Q58.94-8.4 59.14-8.45L59.14-8.45 60.04-8.65Q60.14-8.4 60.19-8.4L60.19-8.4Q60.29-8.4 60.67-8.6 61.04-8.8 61.09-8.75L61.09-8.75 61.39-8.45 61.54-8.6 62.99-8.75 63.04-8.6 63.29-8.75Q63.44-8.75 63.49-8.6L63.49-8.6Q64.19-9 64.99-9.2L64.99-9.2 65.04-9.15Q64.99-9.1 65.39-9.25L65.39-9.25Q65.54-9.3 65.94-9.3L65.94-9.3 65.99-9.3Q66.09-9.3 66.17-9.33 66.24-9.35 66.29-9.35L66.29-9.35Q66.94-9.35 67.04-8.95L67.04-8.95 67.04-8.9Q67.04-8.6 66.04-8.6L66.04-8.6Q65.94-8.6 65.82-8.53 65.69-8.45 65.59-8.6L65.59-8.6 65.09-8.45Q64.89-8.4 64.79-8.4 64.69-8.4 64.64-8.4L64.64-8.4 64.59-8.4Q64.54-8.4 64.17-8.3 63.79-8.2 62.79-8L62.79-8Q62.64-8 62.09-7.78 61.54-7.55 61.44-7.55L61.44-7.55Q61.39-7.55 60.97-7.43 60.54-7.3 60.44-7.3L60.44-7.3 60.44-7.35Q60.44-7.45 60.39-7.45L60.39-7.45Q60.34-7.5 60.32-7.4 60.29-7.3 60.19-7.3L60.19-7.3Q60.04-7.3 59.92-7.33 59.79-7.35 59.64-7.35L59.64-7.35Q58.74-7.35 58.49-6.9L58.49-6.9 58.29-7Q58.09-7.15 57.94-7.15L57.94-7.15Q57.79-7.2 54.84-6.7L54.84-6.7 54.44-6.7Q54.49-6.65 54.59-6.65L54.59-6.65 55.14-6.65Q56.24-6.2 56.29-6.15L56.29-6.15 56.34-6.2 56.44-6.2Q56.49-6.2 56.97-5.95 57.44-5.7 57.49-5.7L57.49-5.7 57.54-5.75 57.59-5.75Q58.14-5.15 58.74-5.15L58.74-5.15Q58.84-4.8 59.24-4.75L59.24-4.75Q59.39-4.7 59.74-4.35L59.74-4.35Q60.29-3.5 60.74-3.35L60.74-3.35 61.89-1.9Q61.89-1.85 62.02-1.63 62.14-1.4 62.59-0.9L62.59-0.9Q62.59-0.95 62.89-0.25L62.89-0.25Q63.09 0 63.39 0.7L63.39 0.7Q63.39 0.9 63.42 1.13 63.44 1.35 63.54 1.65L63.54 1.65 63.64 1.95Q63.59 1.95 63.54 2.3L63.54 2.3Q63.54 2.7 63.52 3.3 63.49 3.9 63.44 4.7L63.44 4.7Q63.44 4.95 63.09 5.85L63.09 5.85 62.99 5.95 62.74 6.4Q62.74 6.55 62.69 6.7L62.69 6.7 61.89 7.9 61.64 8.05 60.99 9.2Q60.64 9.65 60.32 9.88 59.99 10.1 59.54 10.45L59.54 10.45Q59.44 10.45 59.29 10.5L59.29 10.5Q59.09 10.7 58.84 10.95 58.59 11.2 58.19 11.35L58.19 11.35 57.29 11.7 56.84 12.1Q56.74 12.1 55.74 12.6L55.74 12.6Q55.09 12.9 54.39 12.9L54.39 12.9Q54.34 12.9 54.24 12.83 54.14 12.75 54.09 12.75L54.09 12.75 52.89 13 52.39 12.9 52.29 12.95ZM52.99 10.9L53.04 10.85 53.19 11Q53.19 11 53.54 10.85L53.54 10.85 53.74 10.85Q54.24 10.85 55.04 10.4L55.04 10.4Q55.14 10.5 55.19 10.5L55.19 10.5Q55.24 10.5 55.72 10.43 56.19 10.35 56.44 10.35L56.44 10.35 56.64 10.1 56.74 10.2Q56.79 10.2 56.89 10.1 56.99 10 57.09 9.95L57.09 9.95Q57.24 9.9 57.64 9.68 58.04 9.45 57.99 9.45L57.99 9.45Q58.04 9.45 58.19 9.65L58.19 9.65 58.99 9.2 59.49 8.75Q59.59 8.75 59.64 8.7L59.64 8.7Q59.84 8.5 60.07 8.22 60.29 7.95 60.59 7.6L60.59 7.6Q60.69 7.7 60.84 7.7L60.84 7.7Q60.99 7.7 61.17 7.48 61.34 7.25 61.24 7.1L61.24 7.1 61.69 7.1 62.39 5.6Q62.39 5.2 62.69 4.85L62.69 4.85Q62.69 4.8 62.69 4.7 62.69 4.6 62.74 4.5L62.74 4.5 62.79 4.3Q62.79 4 62.79 3.63 62.79 3.25 62.74 2.8L62.74 2.8Q62.64 2.05 62.29 1.4L62.29 1.4Q62.29 1.25 62.34 1.1L62.34 1.1Q62.19 0.9 62.02 0.65 61.84 0.4 61.64 0.05L61.64 0.05 61.49-0.55Q61.19-0.8 60.89-1.15L60.89-1.15Q60.69-1.25 60.47-1.48 60.24-1.7 59.99-1.95L59.99-1.95 59.79-2.3 59.39-2.5Q59.34-2.6 59.02-2.78 58.69-2.95 58.74-3.15L58.74-3.15Q58.39-3.15 57.84-3.55L57.84-3.55 57.24-4 57.14-4Q57.09-3.95 57.04-3.95L57.04-3.95Q56.74-3.95 56.64-4.25L56.64-4.25Q56.29-4.45 55.89-4.45L55.89-4.45Q55.89-4.5 55.54-4.6L55.54-4.6 55.19-4.85 55.04-4.75Q54.64-4.75 54.64-5.15L54.64-5.15Q54.64-5.4 54.84-5.4L54.84-5.4 54.89-5.35 54.94-5.35Q55.09-5.35 55.04-5.7L55.04-5.7 54.94-5.65Q54.69-5.7 54.34-5.8 53.99-5.9 53.54-6.05L53.54-6.05 51.89-3.7Q51.84-3.6 51.79-3.45 51.74-3.3 51.64-3.1L51.64-3.1Q51.49-2.8 51.27-2.38 51.04-1.95 50.69-1.4L50.69-1.4Q50.69-1.25 50.62-1.1 50.54-0.95 50.44-0.65L50.44-0.65Q50.09-0.4 50.04-0.05L50.04-0.05Q49.94 0.5 49.59 1.55L49.59 1.55Q49.54 1.6 49.49 1.65 49.44 1.7 49.44 1.8L49.44 1.8 49.34 2.45 49.24 2.5Q49.19 2.85 49.09 3.25 48.99 3.65 48.89 4.05L48.89 4.05 48.89 4.4Q48.89 4.7 48.74 5.2 48.59 5.7 48.59 6.2L48.59 6.2Q48.59 6.3 48.69 6.3L48.69 6.3Q48.59 6.7 48.64 6.75L48.64 6.75Q48.64 7.25 48.84 7.9L48.84 7.9Q48.94 8.05 49.04 8.35 49.14 8.65 49.24 9L49.24 9Q49.44 9.15 49.64 9.55L49.64 9.55 49.79 9.55Q49.99 9.8 49.99 9.88 49.99 9.95 50.54 10.35L50.54 10.35Q50.74 10.4 50.99 10.48 51.24 10.55 51.59 10.75L51.59 10.75Q51.69 10.75 51.89 10.78 52.09 10.8 52.34 10.85L52.34 10.85 52.89 10.95Q52.99 10.95 52.99 10.9L52.99 10.9ZM70.34-0.05L69.79 0.05Q69.79 0.05 69.44-0.15L69.44-0.15Q69.29-0.15 68.99-0.2 68.69-0.25 68.09-0.55L68.09-0.55Q67.99-0.6 67.81-0.68 67.64-0.75 67.44-0.9L67.44-0.9Q67.39-1.15 66.99-1.65L66.99-1.65 66.89-1.65 66.74-1.55Q66.69-1.8 66.44-2L66.44-2Q66.44-2.2 66.24-2.45L66.24-2.45Q66.34-2.85 66.24-3.35L66.24-3.35Q66.14-3.65 65.84-3.95L65.84-3.95 65.99-4.15Q66.09-4.35 66.19-4.63 66.29-4.9 66.39-5.25L66.39-5.25Q66.44-5.45 66.49-5.7 66.54-5.95 66.64-6.3L66.64-6.3Q66.59-6.35 66.16-6.7 65.74-7.05 65.44-6.9L65.44-6.9Q65.49-7 65.49-7.08 65.49-7.15 65.49-7.15L65.49-7.15Q65.49-7.2 65.39-7.28 65.29-7.35 65.29-7.45L65.29-7.45Q65.29-7.45 65.44-7.63 65.59-7.8 65.64-7.8L65.64-7.8Q65.74-7.8 65.96-7.7 66.19-7.6 66.29-7.6L66.29-7.6Q66.34-7.6 66.44-7.65 66.54-7.7 66.59-7.7L66.59-7.7 67.44-7.5Q67.54-7.5 67.74-7.6L67.74-7.6 68.99-8.85Q69.14-8.85 69.16-8.93 69.19-9 69.69-9.45L69.69-9.45Q69.74-9.45 69.86-9.5 69.99-9.55 70.24-9.8L70.24-9.8 70.39-10.05Q71.84-11.05 72.94-11.05L72.94-11.05 73.29-11.05Q73.19-10.95 73.39-10.95L73.39-10.95Q73.44-10.95 73.54-11 73.64-11.05 73.69-11.05L73.69-11.05 73.99-10.85 74.29-10.85Q74.49-10.65 74.49-10.65L74.49-10.65Q74.54-10.65 74.54-10.7L74.54-10.7 74.59-10.7Q74.49-10.7 74.79-10.4L74.79-10.4Q74.79-10.4 74.54-9.6L74.54-9.6Q74.39-9.5 74.11-9.2 73.84-8.9 73.74-8.9L73.74-8.9Q73.69-8.9 73.51-9 73.34-9.1 73.24-9.1L73.24-9.1Q73.19-9.1 72.94-9 72.69-8.9 72.59-8.8L72.59-8.8Q72.54-8.75 72.36-8.68 72.19-8.6 71.19-8.25L71.19-8.25Q71.24-7.9 71.04-7.85L71.04-7.85Q70.69-7.8 70.59-7.6L70.59-7.6 70.59-7.55Q70.84-7.3 71.74-7.3L71.74-7.3Q71.79-7.3 71.86-7.35 71.94-7.4 72.04-7.4L72.04-7.4Q72.09-7.4 72.14-7.35L72.14-7.35 72.24-7.35Q72.29-7.35 72.39-7.43 72.49-7.5 72.54-7.5L72.54-7.5Q72.64-7.5 73.14-7.35 73.64-7.2 73.69-7.2L73.69-7.2Q73.89-7.2 73.99-7.45L73.99-7.45 74.19-7.3 74.44-7.3Q74.49-7.3 74.64-7.45L74.64-7.45 74.64-7.55Q74.24-7.8 74.04-7.8L74.04-7.8 74.04-8.2 74.29-8.3Q74.34-8.3 74.39-8.25L74.39-8.25 74.49-8.25 74.94-8.4Q75.09-8.1 75.29-7.9L75.29-7.9Q75.34-7.9 75.34-8L75.34-8Q75.49-7.95 75.76-7.73 76.04-7.5 76.14-7.5L76.14-7.5Q76.19-7.5 76.29-7.58 76.39-7.65 76.49-7.7L76.49-7.7 76.74-7.7Q77.19-7.7 77.74-7.9L77.74-7.9 77.89-7.8Q78.04-7.95 78.24-7.95L78.24-7.95Q78.34-7.95 78.34-7.9L78.34-7.9 78.39-7.9 78.94-8Q79.04-8.1 79.29-8.15 79.54-8.2 80.14-8.2L80.14-8.2Q80.19-8.2 80.19-8.25L80.19-8.25Q80.39-8.35 80.61-8.4 80.84-8.45 81.14-8.5L81.14-8.5Q81.19-8.55 81.36-8.65 81.54-8.75 81.99-8.85L81.99-8.85Q82.09-8.85 82.19-8.85 82.29-8.85 82.49-8.9L82.49-8.9 82.64-9.05Q82.69-9.05 82.69-9L82.69-9 82.74-9Q82.54-9 83.44-9.4L83.44-9.4Q83.49-9.35 83.49-9.25 83.49-9.15 83.54-9L83.54-9Q83.39-9 83.34-8.8L83.34-8.8Q82.84-8.75 82.64-8.4L82.64-8.4 81.89-8.1Q81.79-8.1 81.66-8.1 81.54-8.1 81.34-8.05L81.34-8.05 80.89-7.8Q80.84-7.8 80.79-7.85 80.74-7.9 80.69-7.9L80.69-7.9Q80.74-7.9 80.41-7.75 80.09-7.6 79.84-7.6L79.84-7.6 79.79-7.6Q79.79-7.65 79.74-7.65L79.74-7.65 79.59-7.5Q79.39-7.45 79.06-7.45 78.74-7.45 78.34-7.4L78.34-7.4Q78.34-7.35 78.29-7.3L78.29-7.3Q78.39-7.3 78.26-7.28 78.14-7.25 77.89-7.2L77.89-7.2Q77.74-7.2 77.49-7.2 77.24-7.2 76.89-7.15L76.89-7.15Q76.84-7.15 76.74-7.05L76.74-7.05 77.39-6.3 77.39-6.15Q77.39-6.15 77.44-6.1 77.49-6.05 77.74-5.65L77.74-5.65Q77.89-5.35 77.74-5.3L77.74-5.3Q77.89-4.8 77.89-4.95L77.89-4.95Q77.89-4.9 77.84-4.7 77.79-4.5 77.69-4.15L77.69-4.15Q77.59-4 77.49-3.78 77.39-3.55 77.29-3.25L77.29-3.25Q77.14-3.05 76.84-2.73 76.54-2.4 76.04-1.9L76.04-1.9Q76.04-1.85 75.81-1.73 75.59-1.6 75.34-1.25L75.34-1.25Q75.04-1.1 74.61-0.93 74.19-0.75 73.64-0.5L73.64-0.5Q73.44-0.45 73.11-0.38 72.79-0.3 72.39-0.25L72.39-0.25Q72.24-0.2 71.99-0.1 71.74 0 71.34 0L71.34 0Q70.49 0 70.34-0.05L70.34-0.05ZM70.24-0.45L70.24-0.45Q70.24-0.4 70.26-0.48 70.29-0.55 70.34-0.55L70.34-0.55 70.74-0.45Q71.04-0.45 71.11-0.53 71.19-0.6 71.34-0.6L71.34-0.6 71.54-0.6Q71.69-0.55 71.79-0.55L71.79-0.55Q71.84-0.55 71.94-0.63 72.04-0.7 72.09-0.7L72.09-0.7Q72.19-0.7 72.19-0.65L72.19-0.65 72.34-0.75 72.99-0.75Q72.99-0.75 73.31-0.83 73.64-0.9 73.94-1.1L73.94-1.1 74.34-1.35Q74.74-1.6 75.04-1.73 75.34-1.85 75.49-1.95L75.49-1.95Q76.24-2.5 76.49-3.15L76.49-3.15Q76.49-3.3 76.56-3.53 76.64-3.75 76.64-3.8L76.64-3.8Q76.64-4 76.44-4.2L76.44-4.2Q76.44-4.3 76.46-4.5 76.49-4.7 76.54-4.95L76.54-4.95 76.44-5.05Q76.34-5.45 76.09-5.85L76.09-5.85Q76.04-5.85 75.99-5.9 75.94-5.95 75.89-6.35L75.89-6.35 75.64-6.55 75.64-6.8 75.09-6.8Q75.04-6.8 74.99-6.85 74.94-6.9 74.89-6.9L74.89-6.9 74.64-6.9Q74.09-6.65 74.09-6.6L74.09-6.6 74.14-6.6Q74.14-6.6 74.09-6.6L74.09-6.6 73.69-6.75Q73.69-6.75 73.44-6.65 73.19-6.55 72.89-6.55L72.89-6.55Q72.84-6.55 72.79-6.63 72.74-6.7 72.64-6.7L72.64-6.7Q72.59-6.7 72.44-6.58 72.29-6.45 72.24-6.45L72.24-6.45Q72.14-6.45 72.11-6.5 72.09-6.55 72.04-6.55L72.04-6.55Q71.99-6.55 71.89-6.5 71.79-6.45 71.74-6.45L71.74-6.45Q71.74-6.45 71.74-6.45L71.74-6.45 71.74-6.45Q71.74-6.45 71.39-6.65L71.39-6.65Q71.39-6.25 71.09-6.25L71.09-6.25Q70.89-6.25 70.89-6.6L70.89-6.6Q70.69-6.55 70.56-6.48 70.44-6.4 70.29-6.4L70.29-6.4 70.14-6.4 69.99-6.55Q69.94-6.4 69.74-6.4L69.74-6.4Q69.59-6.4 69.54-6.45L69.54-6.45 69.54-6.6Q69.49-6.55 69.39-6.5 69.29-6.45 69.19-6.4L69.19-6.4 69.19-6.35Q69.19-6.1 68.89-5.9 68.59-5.7 68.04-5.4L68.04-5.4Q68.04-5.35 68.06-5.28 68.09-5.2 68.09-5.15L68.09-5.15Q68.09-4.65 67.64-4.5L67.64-4.5 67.19-3.15Q67.29-3.15 67.29-3.1L67.29-3.1 67.84-1.45Q67.89-1.45 67.94-1.5L67.94-1.5 68.09-1.5Q68.24-1.5 68.34-1.18 68.44-0.85 68.64-0.85L68.64-0.85Q68.69-0.85 68.69-0.9L68.69-0.9 68.74-0.9Q68.69-0.9 69.14-0.7L69.14-0.7Q69.14-0.7 69.44-0.6L69.44-0.6 69.54-0.7Q70.24-0.55 70.24-0.45ZM84.29 0.5L84.29 0.5Q84.04 0.25 83.79 0.25L83.79 0.25 83.39 0.35Q83.34 0.35 83.19 0.25 83.04 0.15 82.99 0.15L82.99 0.15Q82.84 0.15 82.84 0.25L82.84 0.25Q82.54-0.05 82.34-0.05L82.34-0.05 82.29-0.05Q82.29 0 82.19 0L82.19 0Q82.04 0 81.89-0.25L81.89-0.25 81.69-0.5Q81.64-0.5 81.39-0.8 81.14-1.1 81.24-1.75L81.24-1.75 81.24-1.9Q81.19-2 80.94-1.9L80.94-1.9Q80.89-2 80.84-2.13 80.79-2.25 80.69-2.4L80.69-2.4Q80.64-2.4 80.24-2L80.24-2 79.94-1.85 79.64-1.4Q79.29-1.2 79.19-1.1 79.09-1 79.04-1L79.04-1 78.89-1Q78.69-1.05 78.69-1.2L78.69-1.2Q78.69-1.3 78.91-1.55 79.14-1.8 79.24-1.8L79.24-1.8Q79.24-1.8 79.24-1.8L79.24-1.8 79.24-1.8Q79.34-1.75 79.39-1.75L79.39-1.75 79.44-1.95Q79.94-2.15 79.94-2.5L79.94-2.5 80.29-2.8Q80.49-2.8 80.64-3.1L80.64-3.1 80.84-3.25 81.04-4.25Q81.14-4.25 81.19-4.35 81.24-4.45 81.44-4.95L81.44-4.95Q81.49-5 81.44-5.3L81.44-5.3Q81.44-5.3 81.41-5.3 81.39-5.3 81.34-5.35L81.34-5.35Q81.49-5.55 81.34-5.9L81.34-5.9Q81.39-6.1 81.74-6.2L81.74-6.2Q81.79-6.3 82.09-6.6L82.09-6.6Q82.14-6.55 82.29-7.55L82.29-7.55Q82.29-7.65 82.54-7.75L82.54-7.75Q82.59-8.3 82.71-8.58 82.84-8.85 83.14-9.3L83.14-9.3Q83.24-9.95 83.39-10.1L83.39-10.1Q83.94-10.8 83.99-11.15L83.99-11.15Q84.34-11.2 84.69-11.85L84.69-11.85Q84.69-11.85 84.66-11.85 84.64-11.85 84.64-11.9L84.64-11.9Q84.64-12.3 85.34-13.15L85.34-13.15Q86.04-13.95 86.94-15.2L86.94-15.2Q87.09-15.25 87.69-15.85L87.69-15.85Q87.99-15.95 88.04-16L88.04-16 88.04-16Q88.04-16 88.04-16 88.04-16 88.04-16L88.04-16Q88.09-15.9 88.09-15.88 88.09-15.85 88.09-15.85L88.09-15.85Q88.09-15.55 87.79-15.45L87.79-15.45Q87.24-14.6 87.24-14.7L87.24-14.7Q87.24-14.6 87.34-14.6L87.34-14.6Q87.39-14.6 87.39-14.65L87.39-14.65 87.44-14.65Q87.54-14.65 87.79-14.4L87.79-14.4Q87.89-14.5 88.04-14.55L88.04-14.55Q88.04-14.55 88.04-14.63 88.04-14.7 88.09-14.8L88.09-14.8Q88.14-14.85 88.29-14.93 88.44-15 88.64-15.2L88.64-15.2Q88.69-15.4 88.86-15.73 89.04-16.05 89.39-16.25L89.39-16.25Q89.34-16.3 89.39-16.5L89.39-16.5Q89.54-16.45 89.71-16.65 89.89-16.85 90.04-16.8L90.04-16.8Q90.14-17.1 90.24-17.25L90.24-17.25 90.54-17.4Q90.64-18.15 91.04-18.15L91.04-18.15Q91.04-18.15 91.04-18.15L91.04-18.15 91.04-18.15Q91.14-18.1 91.19-18.1L91.19-18.1 91.24-18.3Q91.29-18.35 91.39-18.4 91.49-18.45 91.59-18.55L91.59-18.55 91.59-18.65Q91.59-19.15 92.19-19.2L92.19-19.2Q92.24-19.3 92.24-19.65L92.24-19.65 92.49-19.65Q92.64-19.8 92.69-19.9 92.74-20 92.94-20.1L92.94-20.1Q92.89-20.65 93.64-21.8L93.64-21.8Q93.44-21.65 93.29-21.65L93.29-21.65Q93.24-21.65 93.24-21.7L93.24-21.7Q93.24-21.8 93.24-21.9 93.24-22 93.29-22.2L93.29-22.2Q93.39-22.3 93.56-22.45 93.74-22.6 93.94-22.75L93.94-22.75Q94.04-22.85 94.16-22.98 94.29-23.1 94.49-23.3L94.49-23.3Q94.64-23.35 94.99-23.85L94.99-23.85Q95.09-23.95 95.24-24.13 95.39-24.3 95.49-24.5L95.49-24.5Q95.89-24.6 96.04-25 96.19-25.4 96.99-25.7L96.99-25.7Q97.19-25.95 97.74-26.25L97.74-26.25Q97.74-26.25 97.84-26.55L97.84-26.55Q98.14-26.65 98.64-27.3L98.64-27.3Q98.69-27.4 99.21-27.78 99.74-28.15 99.79-28.15L99.79-28.15 99.99-28.15Q99.99-28.15 100.34-27.98 100.69-27.8 101.19-27.5L101.19-27.5 101.29-26.9 101.14-26.6 101.49-26.45Q101.54-26.45 101.54-26.3L101.54-26.3Q101.54-26.05 101.39-25.5L101.39-25.5Q101.34-25.2 101.31-24.93 101.29-24.65 101.34-24.4L101.34-24.4 100.34-23 99.99-22.5Q99.94-22.5 99.74-22.4L99.74-22.4Q99.19-21.9 98.49-20.6L98.49-20.6Q98.44-20.6 98.44-20.63 98.44-20.65 98.39-20.65L98.39-20.65Q98.14-20.5 97.94-20L97.94-20 97.49-19.8Q97.39-19.6 97.19-19.4L97.19-19.4 97.09-19.5 96.94-19Q96.69-18.8 96.66-18.63 96.64-18.45 96.49-18.25L96.49-18.25 95.89-17.75Q95.84-17.7 95.31-17.35 94.79-17 94.79-16.85L94.79-16.85Q94.49-16.5 94.01-15.98 93.54-15.45 92.89-14.7L92.89-14.7Q92.69-14.45 92.36-14.13 92.04-13.8 91.54-13.4L91.54-13.4Q91.44-13.3 91.19-13.03 90.94-12.75 90.59-12.35L90.59-12.35Q90.34-12.2 89.99-11.95 89.64-11.7 89.24-11.35L89.24-11.35Q89.24-11.3 89.09-11.2 88.94-11.1 88.64-10.65L88.64-10.65 88.49-10.65Q88.34-10.45 88.11-10.2 87.89-9.95 87.64-9.55L87.64-9.55Q87.54-9.55 87.49-9.5L87.49-9.5Q87.14-9 86.74-8.75L86.74-8.75Q86.74-8.7 86.66-8.6 86.59-8.5 86.34-8.35L86.34-8.35Q86.34-8.25 86.24-8.05 86.14-7.85 85.84-7.7L85.84-7.7Q85.79-7.65 85.79-7.5L85.79-7.5 85.64-7.5Q85.49-7.35 85.39-7.1L85.39-7.1Q84.89-6.95 84.94-6.6L84.94-6.6 84.49-6.2Q84.04-5.85 83.59-5.25L83.59-5.25Q83.54-5.1 83.29-3.95L83.29-3.95Q83.39-3.85 83.29-3.4L83.29-3.4Q83.14-2.9 83.14-2.75 83.14-2.6 83.14-2.55L83.14-2.55Q83.14-2.3 83.41-1.95 83.69-1.6 83.69-1.4L83.69-1.4Q83.84-1.3 84.09-1.4L84.09-1.4Q84.09-1.3 84.29-1.25L84.29-1.25Q84.44-0.9 84.89-0.85L84.89-0.85 85.04-1.05 85.19-1.05Q85.24-0.85 85.44-0.85L85.44-0.85Q85.54-0.85 85.71-0.95 85.89-1.05 85.94-1.05L85.94-1.05Q85.94-1.05 85.94-1.05L85.94-1.05 85.94-1.05Q85.89-1 86.09-0.95L86.09-0.95Q86.14-1 86.14-1.2L86.14-1.2 86.54-1.2Q87.54-1.2 87.79-1.6L87.79-1.6Q87.99-1.65 88.24-1.75 88.49-1.85 88.84-1.95L88.84-1.95Q89.04-2.05 89.09-2.25L89.09-2.25Q89.04-2.25 89.04-2.3L89.04-2.3 89.59-2.3 89.59-2.55Q89.69-2.6 90.14-2.6L90.14-2.6 90.34-2.9 90.89-3.2Q90.94-3.2 91.11-3.25 91.29-3.3 91.59-3.65L91.59-3.65Q91.69-3.65 91.79-3.7L91.79-3.7Q92.09-3.9 92.74-4.6L92.74-4.6 93.69-5.1 93.79-5.2 94.24-5.2Q94.19-5 93.94-4.7L93.94-4.7 93.29-4.25Q92.64-3.8 92.69-3.8L92.69-3.8 92.64-3.8Q92.64-3.85 92.59-3.85L92.59-3.85Q92.19-3.65 92.09-3.35L92.09-3.35Q91.94-3.35 91.89-3.15L91.89-3.15Q91.79-3.15 91.64-3.1L91.64-3.1Q91.64-3.1 91.64-3.08 91.64-3.05 91.59-2.95L91.59-2.95 90.94-2.5Q90.94-2.25 90.54-2.15L90.54-2.15Q90.39-2.15 90.19-2.35L90.19-2.35 89.89-2.15 89.89-2.1Q89.89-1.85 89.64-1.7 89.39-1.55 89.24-1.65L89.24-1.65Q89.29-1.6 89.29-1.45L89.29-1.45Q89.29-1.4 89.04-1.05L89.04-1.05 87.84-0.45 87.79-0.45Q87.79-0.5 87.69-0.5L87.69-0.5Q87.39-0.5 87.09-0.2L87.09-0.2Q86.94-0.15 86.49 0 86.04 0.15 85.99 0.15L85.99 0.15 85.84 0.05 85.19 0.05Q84.99 0.05 84.94 0.2 84.89 0.35 84.79 0.35L84.79 0.35Q84.74 0.35 84.74 0.3L84.74 0.3 84.64 0.3Q84.34 0.3 84.29 0.5ZM84.39-7.3L84.54-6.9 84.74-7Q84.99-7.25 85.26-7.6 85.54-7.95 85.84-8.35L85.84-8.35Q85.84-8.35 85.99-8.5 86.14-8.65 86.14-8.8L86.14-8.8Q86.39-9.05 86.69-9.33 86.99-9.6 87.39-9.95L87.39-9.95 87.59-10.3Q87.64-10.35 87.74-10.4 87.84-10.45 87.94-10.55L87.94-10.55 89.04-11.65Q89.09-11.7 89.09-11.85L89.09-11.85Q89.44-12.1 89.49-12.3L89.49-12.3Q89.59-12.35 89.84-12.6 90.09-12.85 90.44-13.25L90.44-13.25Q90.64-13.25 90.94-13.7L90.94-13.7Q91.04-13.75 91.29-14L91.29-14Q91.94-15.1 91.94-15.15L91.94-15.15 92.09-15.15 92.84-15.95Q93.04-16.15 93.04-16.5L93.04-16.5Q93.89-16.9 93.99-17.5L93.99-17.5 94.34-17.75Q94.34-17.9 94.69-18.25L94.69-18.25Q94.69-18.25 94.74-18.25 94.79-18.25 94.84-18.3L94.84-18.3Q94.94-18.45 95.06-18.68 95.19-18.9 95.39-19.25L95.39-19.25 95.64-19.25 95.79-19.6Q95.89-19.8 96.11-20.03 96.34-20.25 96.59-20.6L96.59-20.6 96.59-20.8Q96.74-20.8 96.94-20.95L96.94-20.95Q96.99-21.05 97.04-21.18 97.09-21.3 97.19-21.5L97.19-21.5Q97.39-21.85 97.71-22.3 98.04-22.75 98.44-23.35L98.44-23.35Q98.44-23.7 98.84-24.2L98.84-24.2 98.84-24.35Q98.89-24.4 98.79-24.4L98.79-24.4Q98.69-24.4 98.59-24.3L98.59-24.3Q97.34-23.35 96.56-22.7 95.79-22.05 95.54-21.75L95.54-21.75Q95.39-21.7 95.24-21.45L95.24-21.45Q95.24-21.45 95.11-21.3 94.99-21.15 94.74-20.9L94.74-20.9Q94.59-20.7 94.29-20.75L94.29-20.75Q94.24-20.35 93.71-19.98 93.19-19.6 93.14-19.3L93.14-19.3Q92.64-19.05 91.89-18.1L91.89-18.1Q91.24-17.45 90.09-16L90.09-16Q89.79-15.85 89.34-15.05L89.34-15.05 88.99-14.75Q88.99-14.55 88.54-14.3L88.54-14.3Q88.54-14.15 88.34-13.95 88.14-13.75 88.14-13.65L88.14-13.65Q87.99-13.45 87.64-13.15L87.64-13.15Q87.64-13.15 87.54-12.85L87.54-12.85Q87.44-12.65 87.29-12.53 87.14-12.4 87.04-12.3L87.04-12.3Q86.99-12.1 86.99-12 86.99-11.9 86.99-11.85L86.99-11.85Q86.74-11.6 86.46-11.15 86.19-10.7 85.89-10.15L85.89-10.15Q85.64-10.15 85.49-9.7 85.34-9.25 85.24-9.2L85.24-9.2Q85.14-9.1 84.99-9.05L84.99-9.05 84.99-8.85 85.19-8.7Q84.99-8.25 84.69-8.2L84.69-8.2Q84.69-8 84.59-7.8L84.59-7.8Q84.59-7.75 84.69-7.75L84.69-7.75Q84.59-7.5 84.54-7.45 84.49-7.4 84.39-7.3L84.39-7.3ZM97.04-7.7L96.89-7.7Q96.89-7.9 97.29-8.3L97.29-8.3 97.34-8.3Q97.34-8.25 97.39-8.25L97.39-8.25Q97.44-8.25 97.74-8.68 98.04-9.1 98.09-9.1L98.09-9.1Q98.24-9.1 98.44-8.95L98.44-8.95 98.44-8.5Q98.34-8.45 98.19-8.28 98.04-8.1 97.99-8.1L97.99-8.1Q97.84-8.1 97.69-8.25L97.69-8.25Q97.64-8.25 97.49-7.95L97.49-7.95 97.04-7.7ZM95.09-5.75L94.89-5.75Q94.89-5.85 94.69-5.9L94.69-5.9Q95.04-6.1 95.74-6.9L95.74-6.9Q95.94-6.85 96.09-7.2 96.24-7.55 96.44-7.6L96.44-7.6 96.69-7.6 96.79-7.5Q96.74-7.35 96.64-7.15 96.54-6.95 96.39-6.7L96.39-6.7 96.34-6.7Q96.19-6.7 96.01-6.53 95.84-6.35 95.84-6.25L95.84-6.25Q95.84-6.2 95.64-6.13 95.44-6.05 95.09-5.75L95.09-5.75ZM94.29-5.25L94.29-5.25 94.29-5.7Q94.39-5.65 94.44-5.63 94.49-5.6 94.49-5.6L94.49-5.6Q94.59-5.6 94.59-5.7L94.59-5.7Q94.69-5.6 94.89-5.6L94.89-5.6Q94.59-5.25 94.29-5.25ZM97.13 0.3L97.13 0.3 96.88 0.25Q96.88 0.2 96.71 0.2 96.53 0.2 96.58 0.15L96.58 0.15 96.58-0.15Q96.18-0.15 95.68-0.8L95.68-0.8Q95.93-1.35 96.28-1.35L96.28-1.35Q96.28-1.35 96.41-1.45 96.53-1.55 96.78-1.75L96.78-1.75 96.78-1.9Q96.78-2 96.81-2.13 96.83-2.25 96.88-2.4L96.88-2.4Q97.13-2.5 97.56-2.75 97.98-3 98.63-3.35L98.63-3.35Q99.78-3.35 99.53-3.05L99.53-3.05Q99.83-2.45 99.68-2.3L99.68-2.3 99.68-2.25Q99.68-2.05 99.38-1.5L99.38-1.5Q99.33-1.4 99.48-1.15L99.48-1.15Q99.33-1.05 99.11-0.75 98.88-0.45 98.53 0L98.53 0Q98.38 0.25 97.98 0.25L97.98 0.25Q97.93 0.25 97.86 0.18 97.78 0.1 97.68 0.1L97.68 0.1Q97.63 0.1 97.41 0.2 97.18 0.3 97.13 0.3ZM105.18 0.05L104.93 0.2Q104.78 0.2 104.68-0.05L104.68-0.05Q104.63 0 104.63 0.05L104.63 0.05 104.33 0.05 104.18-0.25Q104.13-0.2 104.13-0.15L104.13-0.15Q104.08-0.15 103.98-0.25L103.98-0.25 103.83-0.15Q103.58-0.4 103.31-0.83 103.03-1.25 102.98-1.7L102.98-1.7Q102.93-1.75 102.78-1.75L102.78-1.75 102.78-2.15Q102.98-2.2 103.03-2.95L103.03-2.95 103.18-3.15 103.18-3.4 103.08-3.5 103.28-3.65 103.83-5.2 104.33-5.75 104.33-5.9Q104.93-6.3 105.08-6.75L105.08-6.75Q105.28-6.75 105.28-6.95L105.28-6.95Q105.93-7.15 105.78-7.6L105.78-7.6Q105.88-7.65 105.91-7.65 105.93-7.65 105.93-7.65L105.93-7.65Q105.98-7.65 106.13-7.58 106.28-7.5 106.33-7.5L106.33-7.5Q106.43-7.5 106.51-7.55 106.58-7.6 106.63-7.6L106.63-7.6Q106.83-7.4 106.88-7.4L106.88-7.4Q107.13-7.4 107.38-7.6L107.38-7.6Q107.38-7.55 107.43-7.45 107.48-7.35 107.48-7.3L107.48-7.3Q107.48-7.05 107.28-6.85L107.28-6.85 107.43-6.65Q107.43-6.3 106.83-5.55L106.83-5.55Q106.23-4.9 105.98-4.8L105.98-4.8Q105.93-4.75 105.88-4.63 105.83-4.5 105.73-4.4L105.73-4.4 105.63-4.4 105.53-4.5 105.03-3.85Q105.03-3.65 104.63-3.1L104.63-3.1Q104.48-3.05 104.41-3.08 104.33-3.1 104.33-3.05L104.33-3.05 104.33-2.7Q104.58-2.25 104.53-2.1L104.53-2.1Q104.38-1.8 104.38-1.75L104.38-1.75Q104.38-1.8 104.68-1.35L104.68-1.35Q104.63-1.3 104.63-1L104.63-1Q105.03-0.95 105.68-0.55L105.68-0.55 105.88-0.55Q106.08-0.55 106.16-0.63 106.23-0.7 106.23-0.7L106.23-0.7Q106.28-0.7 106.28-0.65L106.28-0.65 106.33-0.65Q106.38-0.65 106.58-0.85 106.78-1.05 106.83-1.05L106.83-1.05Q106.88-1.05 106.88-1 106.88-0.95 106.93-0.95L106.93-0.95Q106.98-0.95 107.13-1 107.28-1.05 107.38-1.05L107.38-1.05 107.38-1.2Q107.33-1.25 107.38-1.25L107.38-1.25 107.38-1.2Q107.43-1.15 107.73-1.05L107.73-1.05 107.68-1.25Q107.83-1.3 107.93-1.55L107.93-1.55Q108.18-1.55 108.41-1.63 108.63-1.7 108.63-1.85L108.63-1.85 109.03-1.85Q109.03-1.75 109.13-1.75L109.13-1.75Q109.63-1.75 109.68-2.4L109.68-2.4 109.98-2.7Q109.98-2.7 110.08-2.6L110.08-2.6Q110.28-2.8 110.43-2.8L110.43-2.8Q110.48-2.8 110.51-2.75 110.53-2.7 110.63-2.7L110.63-2.7Q110.78-2.7 110.93-2.85 111.08-3 111.08-3.05L111.08-3.05Q111.18-3.15 111.33-3.25 111.48-3.35 111.58-3.55L111.58-3.55 111.88-3.4Q111.83-3.45 112.93-4.3L112.93-4.3Q113.43-4.5 113.43-4.6L113.43-4.6Q113.63-4.6 113.83-4.75L113.83-4.75 113.83-4.9 114.53-5.25 114.53-4.95 114.28-4.95Q114.23-4.9 114.23-4.65L114.23-4.65 113.08-3.75Q112.98-3.75 113.03-3.8L113.03-3.8 112.98-3.8Q113.03-3.8 112.53-3.3L112.53-3.3Q112.43-3.2 112.13-3.2L112.13-3.2Q111.48-2.6 111.63-2.65L111.63-2.65Q111.63-2.65 111.63-2.65L111.63-2.65 111.63-2.65Q111.58-2.7 111.53-2.7L111.53-2.7Q111.48-2.65 111.48-2.5L111.48-2.5 111.43-2.5Q111.23-2.5 110.83-2.1L110.83-2.1Q110.78-2.1 110.68-2.1 110.58-2.1 110.48-2.05L110.48-2.05Q110.28-1.9 110.01-1.68 109.73-1.45 109.38-1.15L109.38-1.15 109.08-1.15Q108.73-0.85 108.58-0.85L108.58-0.85 108.43-0.85Q108.38-0.9 108.33-0.9L108.33-0.9Q108.28-0.9 107.96-0.7 107.63-0.5 107.53-0.5L107.53-0.5 107.48-0.5Q107.48-0.55 107.43-0.55L107.43-0.55Q107.38-0.55 107.06-0.38 106.73-0.2 106.68-0.2L106.68-0.2 106.63-0.2Q106.63-0.25 106.53-0.25L106.53-0.25Q106.48-0.25 106.41-0.2 106.33-0.15 106.13-0.1L106.13-0.1Q105.63 0.15 105.83 0.15L105.83 0.15Q105.78 0.15 105.53 0.1 105.28 0.05 105.18 0.05L105.18 0.05ZM114.93-5.35L114.93-5.35Q114.88-5.35 114.86-5.43 114.83-5.5 114.78-5.5L114.78-5.5 115.48-6.25Q115.68-6.25 115.68-6.15L115.68-6.15Q115.68-5.95 115.36-5.68 115.03-5.4 114.93-5.35ZM108.38-9.35L108.38-9.35Q107.98-9.35 107.28-9.9L107.28-9.9Q106.68-10.5 106.68-10.85L106.68-10.85Q107.28-11.1 108.01-11.43 108.73-11.75 109.53-12.15L109.53-12.15 109.58-12.15Q109.38-11.6 109.03-11.25L109.03-11.25 109.13-10.9 109.13-10.6 108.88-10.3Q108.88-9.35 108.38-9.35ZM118.63-0.05L118.08 0.05Q118.08 0.05 117.73-0.15L117.73-0.15Q117.58-0.15 117.28-0.2 116.98-0.25 116.38-0.55L116.38-0.55Q116.28-0.6 116.1-0.68 115.93-0.75 115.73-0.9L115.73-0.9Q115.68-1.15 115.28-1.65L115.28-1.65 115.18-1.65 115.03-1.55Q114.98-1.8 114.73-2L114.73-2Q114.73-2.2 114.53-2.45L114.53-2.45Q114.63-2.85 114.53-3.35L114.53-3.35Q114.43-3.65 114.13-3.95L114.13-3.95 114.28-4.15Q114.38-4.35 114.48-4.63 114.58-4.9 114.68-5.25L114.68-5.25Q114.73-5.45 114.78-5.7 114.83-5.95 114.93-6.3L114.93-6.3Q114.88-6.35 114.45-6.7 114.03-7.05 113.73-6.9L113.73-6.9Q113.78-7 113.78-7.08 113.78-7.15 113.78-7.15L113.78-7.15Q113.78-7.2 113.68-7.28 113.58-7.35 113.58-7.45L113.58-7.45Q113.58-7.45 113.73-7.63 113.88-7.8 113.93-7.8L113.93-7.8Q114.03-7.8 114.25-7.7 114.48-7.6 114.58-7.6L114.58-7.6Q114.63-7.6 114.73-7.65 114.83-7.7 114.88-7.7L114.88-7.7 115.73-7.5Q115.83-7.5 116.03-7.6L116.03-7.6 117.28-8.85Q117.43-8.85 117.45-8.93 117.48-9 117.98-9.45L117.98-9.45Q118.03-9.45 118.15-9.5 118.28-9.55 118.53-9.8L118.53-9.8 118.68-10.05Q120.13-11.05 121.23-11.05L121.23-11.05 121.58-11.05Q121.48-10.95 121.68-10.95L121.68-10.95Q121.73-10.95 121.83-11 121.93-11.05 121.98-11.05L121.98-11.05 122.28-10.85 122.58-10.85Q122.78-10.65 122.78-10.65L122.78-10.65Q122.83-10.65 122.83-10.7L122.83-10.7 122.88-10.7Q122.78-10.7 123.08-10.4L123.08-10.4Q123.08-10.4 122.83-9.6L122.83-9.6Q122.68-9.5 122.4-9.2 122.13-8.9 122.03-8.9L122.03-8.9Q121.98-8.9 121.8-9 121.63-9.1 121.53-9.1L121.53-9.1Q121.48-9.1 121.23-9 120.98-8.9 120.88-8.8L120.88-8.8Q120.83-8.75 120.65-8.68 120.48-8.6 119.48-8.25L119.48-8.25Q119.53-7.9 119.33-7.85L119.33-7.85Q118.98-7.8 118.88-7.6L118.88-7.6 118.88-7.55Q119.13-7.3 120.03-7.3L120.03-7.3Q120.08-7.3 120.15-7.35 120.23-7.4 120.33-7.4L120.33-7.4Q120.38-7.4 120.43-7.35L120.43-7.35 120.53-7.35Q120.58-7.35 120.68-7.43 120.78-7.5 120.83-7.5L120.83-7.5Q120.93-7.5 121.43-7.35 121.93-7.2 121.98-7.2L121.98-7.2Q122.18-7.2 122.28-7.45L122.28-7.45 122.48-7.3 122.73-7.3Q122.78-7.3 122.93-7.45L122.93-7.45 122.93-7.55Q122.53-7.8 122.33-7.8L122.33-7.8 122.33-8.2 122.58-8.3Q122.63-8.3 122.68-8.25L122.68-8.25 122.78-8.25 123.23-8.4Q123.38-8.1 123.58-7.9L123.58-7.9Q123.63-7.9 123.63-8L123.63-8Q123.78-7.95 124.05-7.73 124.33-7.5 124.43-7.5L124.43-7.5Q124.48-7.5 124.58-7.58 124.68-7.65 124.78-7.7L124.78-7.7 125.03-7.7Q125.48-7.7 126.03-7.9L126.03-7.9 126.18-7.8Q126.33-7.95 126.53-7.95L126.53-7.95Q126.63-7.95 126.63-7.9L126.63-7.9 126.68-7.9 127.23-8Q127.33-8.1 127.58-8.15 127.83-8.2 128.43-8.2L128.43-8.2Q128.48-8.2 128.48-8.25L128.48-8.25Q128.68-8.35 128.9-8.4 129.13-8.45 129.43-8.5L129.43-8.5Q129.48-8.55 129.65-8.65 129.83-8.75 130.28-8.85L130.28-8.85Q130.38-8.85 130.48-8.85 130.58-8.85 130.78-8.9L130.78-8.9 130.93-9.05Q130.98-9.05 130.98-9L130.98-9 131.03-9Q130.83-9 131.73-9.4L131.73-9.4Q131.78-9.35 131.78-9.25 131.78-9.15 131.83-9L131.83-9Q131.68-9 131.63-8.8L131.63-8.8Q131.13-8.75 130.93-8.4L130.93-8.4 130.18-8.1Q130.08-8.1 129.95-8.1 129.83-8.1 129.63-8.05L129.63-8.05 129.18-7.8Q129.13-7.8 129.08-7.85 129.03-7.9 128.98-7.9L128.98-7.9Q129.03-7.9 128.7-7.75 128.38-7.6 128.13-7.6L128.13-7.6 128.08-7.6Q128.08-7.65 128.03-7.65L128.03-7.65 127.88-7.5Q127.68-7.45 127.35-7.45 127.03-7.45 126.63-7.4L126.63-7.4Q126.63-7.35 126.58-7.3L126.58-7.3Q126.68-7.3 126.55-7.28 126.43-7.25 126.18-7.2L126.18-7.2Q126.03-7.2 125.78-7.2 125.53-7.2 125.18-7.15L125.18-7.15Q125.13-7.15 125.03-7.05L125.03-7.05 125.68-6.3 125.68-6.15Q125.68-6.15 125.73-6.1 125.78-6.05 126.03-5.65L126.03-5.65Q126.18-5.35 126.03-5.3L126.03-5.3Q126.18-4.8 126.18-4.95L126.18-4.95Q126.18-4.9 126.13-4.7 126.08-4.5 125.98-4.15L125.98-4.15Q125.88-4 125.78-3.78 125.68-3.55 125.58-3.25L125.58-3.25Q125.43-3.05 125.13-2.73 124.83-2.4 124.33-1.9L124.33-1.9Q124.33-1.85 124.1-1.73 123.88-1.6 123.63-1.25L123.63-1.25Q123.33-1.1 122.9-0.93 122.48-0.75 121.93-0.5L121.93-0.5Q121.73-0.45 121.4-0.38 121.08-0.3 120.68-0.25L120.68-0.25Q120.53-0.2 120.28-0.1 120.03 0 119.63 0L119.63 0Q118.78 0 118.63-0.05L118.63-0.05ZM118.53-0.45L118.53-0.45Q118.53-0.4 118.55-0.48 118.58-0.55 118.63-0.55L118.63-0.55 119.03-0.45Q119.33-0.45 119.4-0.53 119.48-0.6 119.63-0.6L119.63-0.6 119.83-0.6Q119.98-0.55 120.08-0.55L120.08-0.55Q120.13-0.55 120.23-0.63 120.33-0.7 120.38-0.7L120.38-0.7Q120.48-0.7 120.48-0.65L120.48-0.65 120.63-0.75 121.28-0.75Q121.28-0.75 121.6-0.83 121.93-0.9 122.23-1.1L122.23-1.1 122.63-1.35Q123.03-1.6 123.33-1.73 123.63-1.85 123.78-1.95L123.78-1.95Q124.53-2.5 124.78-3.15L124.78-3.15Q124.78-3.3 124.85-3.53 124.93-3.75 124.93-3.8L124.93-3.8Q124.93-4 124.73-4.2L124.73-4.2Q124.73-4.3 124.75-4.5 124.78-4.7 124.83-4.95L124.83-4.95 124.73-5.05Q124.63-5.45 124.38-5.85L124.38-5.85Q124.33-5.85 124.28-5.9 124.23-5.95 124.18-6.35L124.18-6.35 123.93-6.55 123.93-6.8 123.38-6.8Q123.33-6.8 123.28-6.85 123.23-6.9 123.18-6.9L123.18-6.9 122.93-6.9Q122.38-6.65 122.38-6.6L122.38-6.6 122.43-6.6Q122.43-6.6 122.38-6.6L122.38-6.6 121.98-6.75Q121.98-6.75 121.73-6.65 121.48-6.55 121.18-6.55L121.18-6.55Q121.13-6.55 121.08-6.63 121.03-6.7 120.93-6.7L120.93-6.7Q120.88-6.7 120.73-6.58 120.58-6.45 120.53-6.45L120.53-6.45Q120.43-6.45 120.4-6.5 120.38-6.55 120.33-6.55L120.33-6.55Q120.28-6.55 120.18-6.5 120.08-6.45 120.03-6.45L120.03-6.45Q120.03-6.45 120.03-6.45L120.03-6.45 120.03-6.45Q120.03-6.45 119.68-6.65L119.68-6.65Q119.68-6.25 119.38-6.25L119.38-6.25Q119.18-6.25 119.18-6.6L119.18-6.6Q118.98-6.55 118.85-6.48 118.73-6.4 118.58-6.4L118.58-6.4 118.43-6.4 118.28-6.55Q118.23-6.4 118.03-6.4L118.03-6.4Q117.88-6.4 117.83-6.45L117.83-6.45 117.83-6.6Q117.78-6.55 117.68-6.5 117.58-6.45 117.48-6.4L117.48-6.4 117.48-6.35Q117.48-6.1 117.18-5.9 116.88-5.7 116.33-5.4L116.33-5.4Q116.33-5.35 116.35-5.28 116.38-5.2 116.38-5.15L116.38-5.15Q116.38-4.65 115.93-4.5L115.93-4.5 115.48-3.15Q115.58-3.15 115.58-3.1L115.58-3.1 116.13-1.45Q116.18-1.45 116.23-1.5L116.23-1.5 116.38-1.5Q116.53-1.5 116.63-1.18 116.73-0.85 116.93-0.85L116.93-0.85Q116.98-0.85 116.98-0.9L116.98-0.9 117.03-0.9Q116.98-0.9 117.43-0.7L117.43-0.7Q117.43-0.7 117.73-0.6L117.73-0.6 117.83-0.7Q118.53-0.55 118.53-0.45Z" opacity="1" transform="matrix(1,0,0,1,0,0)" fill="#000000" class="wordmark-text-0" data-fill-palette-color="primary" id="text-0"></path></svg></g></svg></g></svg></g></svg></g><g transform="matrix(1,0,0,1,102.84891355816592,0)"><svg viewBox="0 0 191.79977288366808 191.79977288366808" height="191.79977288366808" width="191.79977288366808"><g><svg xmlns="http://www.w3.org/2000/svg" xmlns:xlink="http://www.w3.org/1999/xlink" version="1.1" x="0" y="0" viewBox="6 7 88 88" enable-background="new 0 0 100 100" xml:space="preserve" height="191.79977288366808" width="191.79977288366808" class="icon-icon-0" data-fill-palette-color="accent" id="icon-0"><g fill="#e1e1dd" data-fill-palette-color="accent"><path d="M22.5 52H10c-2.206 0-4 1.794-4 4v12.5c0 2.206 1.794 4 4 4h12.5c2.206 0 4-1.794 4-4V56C26.5 53.794 24.706 52 22.5 52z" fill="#000000" data-fill-palette-color="accent"></path><path d="M45 52H32.5c-2.206 0-4 1.794-4 4v12.5c0 2.206 1.794 4 4 4H45c2.206 0 4-1.794 4-4V56C49 53.794 47.206 52 45 52z" fill="#000000" data-fill-palette-color="accent"></path><path d="M22.5 74.5H10c-2.206 0-4 1.794-4 4V91c0 2.206 1.794 4 4 4h12.5c2.206 0 4-1.794 4-4V78.5C26.5 76.294 24.706 74.5 22.5 74.5z" fill="#000000" data-fill-palette-color="accent"></path><path d="M45 74.5H32.5c-2.206 0-4 1.794-4 4V91c0 2.206 1.794 4 4 4H45c2.206 0 4-1.794 4-4V78.5C49 76.294 47.206 74.5 45 74.5z" fill="#000000" data-fill-palette-color="accent"></path><path d="M45 7H10c-2.206 0-4 1.794-4 4v35c0 2.206 1.794 4 4 4h35c2.206 0 4-1.794 4-4V11C49 8.794 47.206 7 45 7z" fill="#000000" data-fill-palette-color="accent"></path><path d="M90 7H55c-2.206 0-4 1.794-4 4v80c0 2.206 1.794 4 4 4h35c2.206 0 4-1.794 4-4V11C94 8.794 92.206 7 90 7z" fill="#000000" data-fill-palette-color="accent"></path></g></svg></g></svg></g><g></g></svg></g><defs></defs></svg><rect width="224.5849574201719" height="247.2" fill="none" stroke="none" visibility="hidden"></rect></g></svg></g></svg>